#!OML:ASF H:\Pregnant\Project 1\Capture day 1\Session 1\femalepreg.ASF
:FULLY-SPECIFIED
:DEGREES
362
root 5.39043 15.7586 28.1068 -181.942 -88.4764 -160.693
lowerback -23.6701 2.10716 0.809865
upperback -5.47077 2.26192 -1.46287
thorax 7.24966 0.931648 -1.42047
lowerneck -19.6004 3.33791 6.26233
upperneck 19.0944 2.89745 -1.01118
head 9.37451 1.67414 -0.982991
rclavicle 5.44173e-015 3.97569e-016
rhumerus -33.902 0.90605 -84.2069
rradius 26.2064
rwrist -25.0913
rhand -22.0226 -39.0203
rfingers 7.12502
rthumb 4.38697 -68.9549
lclavicle 5.44173e-015 3.97569e-016
lhumerus -49.9705 -16.9703 84.7564
lradius 56.6768
lwrist 50.5742
lhand -31.2548 20.046
lfingers 7.12502
lthumb -4.52919 49.9776
rfemur -25.4732 19.9036 18.998
rtibia 27.7323
rfoot -15.0073 -17.8248
rtoes -2.44047
lfemur 0 0 0
ltibia 0
lfoot 0 0
ltoes 0
363
root 5.39911 15.7581 28.1108 -182.283 -88.5906 -160.37
lowerback -23.5581 2.09566 0.833492
upperback -5.48283 2.24591 -1.4939
thorax 7.18054 0.925034 -1.47477
lowerneck -19.6329 3.28496 6.24405
upperneck 19.1522 2.82143 -0.990556
head 9.39706 1.64006 -0.98311
rclavicle 3.52843e-015 -1.39149e-014
rhumerus -33.7734 -0.834639 -83.4047
rradius 24.3196
rwrist -22.2379
rhand -23.3711 -39.3931
rfingers 7.12502
rthumb 3.08468 -69.3506
lclavicle 3.52843e-015 -1.39149e-014
lhumerus -49.6508 -16.8241 84.7977
lradius 54.5417
lwrist 50.7996
lhand -31.268 19.9954
lfingers 7.12502
lthumb -4.54197 49.9267
rfemur -25.4997 19.7709 18.9816
rtibia 27.7884
rfoot -15.0408 -17.8066
rtoes -2.42098
lfemur 0 0 0
ltibia 0
lfoot 0 0
ltoes 0
364
root 5.40706 15.7577 28.1133 -182.441 -88.6777 -160.24
lowerback -23.4508 2.08712 0.840984
upperback -5.48644 2.23792 -1.5223
thorax 7.12262 0.922263 -1.51435
lowerneck -19.679 3.23283 6.23073
upperneck 19.2094 2.74495 -0.973334
head 9.422 1.60576 -0.985147
rclavicle 1.23495e-014 -9.93923e-015
rhumerus -33.733 -2.62998 -82.5496
rradius 22.6605
rwrist -19.2981
rhand -24.5551 -39.8095
rfingers 7.12502
rthumb 1.94129 -69.7804
lclavicle 1.23495e-014 -9.93923e-015
lhumerus -49.294 -16.6674 84.8282
lradius 52.4006
lwrist 51.0137
lhand -31.2935 19.9356
lfingers 7.12502
lthumb -4.56659 49.8664
rfemur -25.5136 19.6911 18.9677
rtibia 27.844
rfoot -15.0732 -17.8141
rtoes -2.3874
lfemur 0 0 0
ltibia 0
lfoot 0 0
ltoes 0
365
root 5.41457 15.7573 28.115 -182.392 -88.7452 -160.318
lowerback -23.3512 2.08009 0.84019
upperback -5.48551 2.23383 -1.54888
thorax 7.07334 0.921314 -1.54584
lowerneck -19.7343 3.18302 6.22305
upperneck 19.2645 2.6703 -0.960041
head 9.4481 1.5723 -0.98914
rclavicle 1.34428e-014 -4.77083e-015
rhumerus -33.8008 -4.36415 -81.6938
rradius 21.2759
rwrist -16.442
rhand -25.6141 -40.2894
rfingers 7.12502
rthumb 0.91847 -70.2671
lclavicle 1.34428e-014 -4.77083e-015
lhumerus -48.9109 -16.4946 84.8474
lradius 50.2708
lwrist 51.2017
lhand -31.344 19.8658
lfingers 7.12502
lthumb -4.61529 49.7956
rfemur -25.5272 19.6407 18.9522
rtibia 27.8999
rfoot -15.0991 -17.8359
rtoes -2.37304
lfemur 0 0 0
ltibia 0
lfoot 0 0
ltoes 0
366
root 5.42193 15.7571 28.1169 -182.095 -88.8036 -160.635
lowerback -23.2606 2.07616 0.838563
upperback -5.48341 2.23381 -1.57575
thorax 7.03012 0.922266 -1.57578
lowerneck -19.7985 3.13246 6.21626
upperneck 19.3179 2.59404 -0.947956
head 9.47525 1.53805 -0.993867
rclavicle 5.36719e-015 1.59028e-015
rhumerus -33.9848 -5.91581 -80.8967
rradius 20.1998
rwrist -13.872
rhand -26.5747 -40.8246
rfingers 7.12502
rthumb -0.00932851 -70.8043
lclavicle 5.36719e-015 1.59028e-015
lhumerus -48.504 -16.2945 84.8522
lradius 48.1632
lwrist 51.3377
lhand -31.4052 19.8018
lfingers 7.12502
lthumb -4.67443 49.7302
rfemur -25.5495 19.5965 18.9295
rtibia 27.9542
rfoot -15.1216 -17.8566
rtoes -2.35878
lfemur 0 0 0
ltibia 0
lfoot 0 0
ltoes 0
367
root 5.42923 15.7571 28.1191 -181.536 -88.8563 -161.208
lowerback -23.1801 2.07034 0.832937
upperback -5.4796 2.23165 -1.59707
thorax 6.99344 0.922078 -1.59779
lowerneck -19.8715 3.0833 6.20605
upperneck 19.3683 2.52142 -0.940639
head 9.50308 1.50472 -0.999139
rclavicle -1.63997e-015 2.54444e-014
rhumerus -34.2701 -7.17444 -80.2112
rradius 19.4357
rwrist -11.7236
rhand -27.416 -41.3836
rfingers 7.12502
rthumb -0.821868 -71.3617
lclavicle -1.63997e-015 2.54444e-014
lhumerus -48.0803 -16.0448 84.8446
lradius 46.0913
lwrist 51.371
lhand -31.5148 19.7339
lfingers 7.12502
lthumb -4.78027 49.66
rfemur -25.5837 19.5552 18.8975
rtibia 28.0091
rfoot -15.1482 -17.8714
rtoes -2.31592
lfemur 0 0 0
ltibia 0
lfoot 0 0
ltoes 0
368
root 5.4371 15.7572 28.123 -181.189 -88.9196 -161.556
lowerback -23.1011 2.06763 0.849821
upperback -5.47771 2.22826 -1.6202
thorax 6.95631 0.921542 -1.63498
lowerneck -19.9532 3.0314 6.18524
upperneck 19.4134 2.44602 -0.925878
head 9.53027 1.47016 -1.00044
rclavicle -7.70291e-016 -1.31198e-014
rhumerus -34.6436 -7.98981 -79.7413
rradius 18.9904
rwrist -10.2671
rhand -28.2643 -41.9136
rfingers 7.12502
rthumb -1.64121 -71.887
lclavicle -7.70291e-016 -1.31198e-014
lhumerus -47.6473 -15.7563 84.8215
lradius 44.0751
lwrist 51.2994
lhand -31.6885 19.6816
lfingers 7.12502
lthumb -4.94791 49.6038
rfemur -25.6327 19.4776 18.863
rtibia 28.0638
rfoot -15.1799 -17.8606
rtoes -2.26408
lfemur 0 0 0
ltibia 0
lfoot 0 0
ltoes 0
369
root 5.44559 15.7574 28.1288 -180.912 -88.9965 -161.823
lowerback -23.0223 2.06006 0.88257
upperback -5.47833 2.21425 -1.6386
thorax 6.91652 0.915979 -1.67912
lowerneck -20.0398 2.982 6.15061
upperneck 19.4531 2.3772 -0.906847
head 9.55639 1.43812 -0.997066
rclavicle 1.63997e-015 -7.95139e-015
rhumerus -35.0725 -8.3456 -79.4955
rradius 18.8205
rwrist -9.4715
rhand -29.0073 -42.3833
rfingers 7.12502
rthumb -2.35873 -72.35
lclavicle 1.63997e-015 -7.95139e-015
lhumerus -47.2188 -15.4055 84.784
lradius 42.1369
lwrist 51.1136
lhand -31.9251 19.6601
lfingers 7.12502
lthumb -5.17644 49.5769
rfemur -25.6969 19.3537 18.8232
rtibia 28.1172
rfoot -15.2142 -17.8196
rtoes -2.21857
lfemur 0 0 0
ltibia 0
lfoot 0 0
ltoes 0
